<?xml version="1.0" standalone="no"?>
<!DOCTYPE svg PUBLIC "-//W3C//DTD SVG 20010904//EN"
 "http://www.w3.org/TR/2001/REC-SVG-20010904/DTD/svg10.dtd">
<svg version="1.0" xmlns="http://www.w3.org/2000/svg"
 width="700.000000pt" height="700.000000pt" viewBox="0 0 700.000000 700.000000"
 preserveAspectRatio="xMidYMid meet">
<metadata>
Created by potrace 1.14, written by Peter Selinger 2001-2017
</metadata>
<g transform="translate(0.000000,700.000000) scale(0.100000,-0.100000)"
fill="#000000" stroke="none">
<path d="M1248 6344 c-461 -93 -828 -381 -1028 -807 -92 -198 -131 -376 -132
-604 -2 -477 237 -922 642 -1194 36 -24 78 -50 93 -58 29 -15 36 -31 13 -31
-28 0 -38 -30 -39 -112 0 -74 8 -238 18 -368 2 -25 6 -83 10 -130 3 -47 8 -96
10 -110 3 -14 7 -54 10 -90 3 -36 10 -90 15 -120 5 -30 12 -73 15 -94 2 -22
12 -64 21 -95 9 -31 17 -63 19 -72 6 -30 64 -168 90 -214 14 -25 37 -66 51
-92 101 -181 240 -390 312 -469 42 -45 115 -112 183 -169 72 -61 235 -155 487
-283 285 -144 358 -185 487 -276 132 -92 176 -135 208 -204 25 -54 36 -67 71
-83 23 -10 64 -21 91 -26 58 -9 353 -10 405 -1 63 11 95 21 109 32 26 21 61
86 78 147 l17 62 13 -59 c15 -67 54 -139 84 -154 96 -52 497 -51 607 2 17 9
39 36 60 78 41 81 68 107 232 221 115 80 210 133 485 273 149 76 286 147 306
159 170 105 337 257 435 397 212 301 373 624 399 799 3 20 7 46 9 56 2 11 7
45 11 75 3 30 8 66 10 80 2 14 6 54 10 90 3 36 8 81 10 100 2 19 6 71 9 115 3
44 8 118 12 165 11 153 12 323 3 347 -5 14 -17 23 -29 23 -34 0 -22 13 53 59
165 101 314 241 424 395 70 99 159 273 198 390 39 118 66 292 66 436 1 136 -5
195 -36 340 -15 71 -73 227 -118 315 -173 338 -460 587 -817 708 -176 60 -257
72 -465 72 -145 0 -186 -3 -265 -20 -14 -2 -38 -7 -55 -11 -99 -20 -289 -93
-367 -141 -21 -13 -40 -23 -44 -23 -7 0 -79 -50 -149 -103 -81 -63 -202 -185
-257 -260 -12 -16 -18 -15 -93 14 -93 35 -259 79 -395 104 -130 24 -498 29
-629 9 -202 -31 -353 -69 -489 -123 l-54 -21 -21 26 c-30 39 -117 133 -152
165 -76 69 -105 93 -180 143 -159 107 -389 203 -535 222 -25 3 -65 10 -90 14
-90 17 -329 8 -452 -16z m-165 -2775 c34 -11 101 -28 148 -38 72 -15 88 -16
105 -4 16 10 21 11 21 1 1 -52 31 -203 63 -318 32 -115 33 -118 9 -75 -30 57
-59 85 -85 85 -39 0 -42 22 50 -335 20 -77 38 -149 41 -160 2 -11 14 -63 25
-115 12 -52 23 -107 26 -121 6 -26 6 -26 52 -13 25 8 60 14 79 14 18 0 33 4
33 9 0 10 -55 176 -126 380 -24 69 -42 126 -41 128 2 1 17 -32 35 -75 45 -111
142 -281 227 -399 l73 -101 -37 15 c-45 20 -161 21 -223 4 -90 -25 -122 -78
-96 -160 11 -37 28 -57 82 -103 73 -61 195 -147 337 -238 121 -77 256 -186
245 -198 -3 -2 -50 28 -106 67 -55 40 -207 143 -338 230 -353 235 -412 304
-456 532 -2 13 -11 58 -19 99 -9 41 -30 149 -47 240 -18 91 -34 173 -36 183
-2 10 -5 26 -8 35 -3 9 -7 35 -11 57 -16 108 -68 306 -94 357 -26 50 -27 57
-10 47 11 -5 48 -19 82 -30z m4929 19 c-33 -37 -67 -155 -121 -428 -28 -140
-53 -266 -55 -280 -23 -133 -71 -358 -86 -410 -23 -76 -93 -174 -172 -242 -29
-25 -145 -106 -258 -180 -113 -74 -256 -171 -319 -216 -115 -83 -159 -105
-105 -54 64 59 136 113 304 224 194 129 301 213 331 261 25 42 25 107 -1 140
-43 54 -212 78 -308 44 l-43 -15 34 42 c44 54 104 144 159 236 47 81 64 114
115 230 18 41 33 71 33 65 -1 -12 -37 -123 -49 -150 -10 -19 -121 -351 -121
-359 0 -2 21 -6 48 -9 55 -6 88 -13 102 -22 5 -3 12 4 15 17 25 113 35 159 39
179 4 26 69 284 110 443 14 54 26 102 26 107 0 5 -11 9 -25 9 -28 0 -57 -25
-80 -70 -27 -52 -27 -28 -1 66 26 95 58 254 58 292 0 18 4 21 22 16 11 -4 26
-7 31 -7 45 2 219 47 282 72 61 25 60 25 35 -1z m-459 -506 c-3 -12 -9 -22
-14 -22 -5 0 -3 11 3 25 13 30 20 28 11 -3z m-4073 -57 c0 -5 -5 -3 -10 5 -5
8 -10 20 -10 25 0 6 5 3 10 -5 5 -8 10 -19 10 -25z m4053 10 c-3 -9 -8 -14
-10 -11 -3 3 -2 9 2 15 9 16 15 13 8 -4z m-2043 -1399 c170 -1 323 9 343 21 5
3 -37 -55 -92 -128 -154 -205 -231 -351 -231 -437 0 -30 -12 -22 -17 11 -13
88 -90 244 -175 352 -4 6 -41 53 -81 105 l-73 96 70 -10 c39 -5 154 -10 256
-10z"/>
<path d="M1083 3493 c-4 -9 4 -64 16 -122 60 -288 135 -661 157 -791 11 -61
38 -139 64 -185 29 -50 107 -142 114 -134 2 2 -1 27 -7 56 -9 45 -8 57 8 87
11 20 23 36 26 36 4 0 3 15 -1 33 -5 17 -12 46 -15 62 -13 77 -12 72 -70 300
-26 99 -53 209 -61 245 -8 36 -17 74 -19 85 -16 71 -71 221 -96 259 -25 41
-79 86 -102 86 -4 0 -11 -8 -14 -17z"/>
<path d="M5867 3492 c-42 -28 -82 -89 -110 -168 -19 -53 -147 -547 -172 -664
-2 -8 -10 -45 -19 -83 -28 -119 -28 -126 -5 -163 21 -35 23 -81 4 -144 -6 -21
0 -18 38 20 78 80 132 193 151 320 9 55 13 78 67 355 28 143 53 268 54 278 2
9 6 21 9 25 2 4 7 25 10 47 4 22 12 65 19 95 7 30 12 61 11 68 -1 6 -2 17 -3
22 -2 15 -23 12 -54 -8z"/>
</g>
</svg>
