<?xml version="1.0" encoding="UTF-8" standalone="no"?>
<!-- Created with Inkscape (http://www.inkscape.org/) -->

<svg
   width="128mm"
   height="128mm"
   viewBox="0 0 128 128"
   version="1.1"
   id="svg5"
   inkscape:version="1.1.1 (3bf5ae0d25, 2021-09-20)"
   sodipodi:docname="RSN-logo.svg"
   xmlns:inkscape="http://www.inkscape.org/namespaces/inkscape"
   xmlns:sodipodi="http://sodipodi.sourceforge.net/DTD/sodipodi-0.dtd"
   xmlns="http://www.w3.org/2000/svg"
   xmlns:svg="http://www.w3.org/2000/svg">
  <sodipodi:namedview
     id="namedview7"
     pagecolor="#ffffff"
     bordercolor="#999999"
     borderopacity="1"
     inkscape:pageshadow="0"
     inkscape:pageopacity="0"
     inkscape:pagecheckerboard="0"
     inkscape:document-units="mm"
     showgrid="false"
     inkscape:zoom="1.4142136"
     inkscape:cx="414.71813"
     inkscape:cy="257.03331"
     inkscape:window-width="1916"
     inkscape:window-height="1036"
     inkscape:window-x="0"
     inkscape:window-y="42"
     inkscape:window-maximized="1"
     inkscape:current-layer="layer6"
     fit-margin-top="0"
     fit-margin-left="0"
     fit-margin-right="0"
     fit-margin-bottom="0"
     width="128mm" />
  <defs
     id="defs2">
    <clipPath
       clipPathUnits="userSpaceOnUse"
       id="clipPath4490">
      <ellipse
         style="opacity:0.999;fill:#ffb5b5;fill-opacity:0.280623;stroke-width:0.35269;stroke-linecap:round;stroke-linejoin:round"
         id="ellipse4492"
         cx="175.86769"
         cy="102.31291"
         rx="54.002747"
         ry="51.082355" />
    </clipPath>
    <clipPath
       clipPathUnits="userSpaceOnUse"
       id="clipPath4494">
      <ellipse
         style="opacity:0.999;fill:#ffb5b5;fill-opacity:0.280623;stroke-width:0.35269;stroke-linecap:round;stroke-linejoin:round"
         id="ellipse4496"
         cx="-37.909775"
         cy="102.31291"
         rx="54.002747"
         ry="51.082355"
         transform="scale(-1,1)" />
    </clipPath>
  </defs>
  <g
     inkscape:groupmode="layer"
     id="layer5"
     inkscape:label="Water"
     style="display:inline"
     sodipodi:insensitive="true">
    <circle
       style="display:inline;opacity:0.999;fill:#ffb5b5;fill-opacity:1;stroke-width:0.35269;stroke-linecap:round;stroke-linejoin:round"
       id="path31-3-6"
       cx="64.016151"
       cy="58.672073"
       r="39.526714" />
    <circle
       style="display:inline;opacity:0.999;fill:#e8e8e6;stroke-width:0.35269;stroke-linecap:round;stroke-linejoin:round"
       id="path31-3"
       cx="70.76619"
       cy="119.38657"
       r="26.255356"
       clip-path="url(#clipPath4494)"
       transform="translate(-42.94097,-81.639069)" />
    <circle
       style="display:inline;opacity:0.999;fill:#e8e8e6;stroke-width:0.35269;stroke-linecap:round;stroke-linejoin:round"
       id="path31"
       cx="143.11575"
       cy="119.38657"
       r="26.255356"
       clip-path="url(#clipPath4490)"
       transform="translate(-42.94097,-81.639069)" />
  </g>
  <g
     inkscape:groupmode="layer"
     id="layer4"
     inkscape:label="Hands"
     style="display:inline"
     sodipodi:insensitive="true">
    <path
       id="path13497"
       style="display:inline;fill:#999999;fill-opacity:1;stroke-width:0.26457"
       d="m 77.694669,115.11098 c 0.23315,-0.60876 0.53609,-1.30619 0.67317,-1.54963 0.29488,-0.52377 0.92934,-1.15988 1.63466,-1.63895 1.43779,-1.17519 3.08601,-2.24891 4.50364,-3.14551 2.39887,-1.54569 5.84021,-2.99873 9.94758,-5.14773 2.16561,-1.13306 4.07607,-2.36581 5.691941,-3.686249 1.43367,-1.17156 3.11939,-2.84611 3.68551,-3.6202 2.07474,-2.83688 3.54904,-5.12781 5.689,-9.07446 1.15619,-2.13231 1.51658,-3.07142 2.31592,-5.99912 0.36139,-1.32367 0.94656,-6.56489 0.93869,-6.63298 -0.008,-0.0681 -0.001,-0.14771 0.0151,-0.17695 0.0699,-0.12642 0.54166,-6.63477 0.65394,-9.02214 0.0832,-1.768 0.0814,-3.2218 -0.004,-3.64739 -0.0964,-0.47801 -0.70712,-0.73417 -1.46277,-0.61349 -0.55967,0.0893 -1.49904,0.60379 -1.92872,1.05621 -0.86137,0.90693 -1.39381,2.88826 -2.8714,10.68475 -0.72203,3.80986 -1.52479,7.92511 -1.83329,9.39814 -0.35862,1.71237 -1.39006,2.89437 -2.0565,3.69029 -0.43585,0.52056 -0.87879,0.92015 -2.1121,1.97867 -3.252371,2.24472 -7.249401,4.64417 -10.072471,6.78887 -0.44274,0.33821 -0.97235,0.72125 -1.17691,0.8512 -0.33243,0.2019 -0.36065,0.21675 -0.67814,0.39316 -0.89202,0.27269 2.94691,-2.74373 2.85263,-2.67458 -0.25949,0.17638 8.207801,-4.98685 9.053461,-6.72651 0.67977,-1.34994 0.49365,-2.59283 -0.87678,-3.19669 -2.955051,-0.95861 -4.718121,-0.4661 -6.718521,0.81125 -0.6894,0.43577 -1.36757,0.87681 -1.78579,1.20971 -0.96659,0.7694 -3.13301,1.75513 -4.11969,2.18564 -0.96007,0.4189 -3.67116,1.0273 -4.40423,1.25752 -0.64591,0.20285 -3.71423,1.39196 -5.30181,2.22451 -1.2967,0.80511 -4.05329,2.45613 -5.95448,4.26408 -0.51395,0.48874 -1.18124,1.58189 -1.70722,2.234 -0.98687,1.34357 -2.0997,2.657439 -2.9868,3.959529 -0.16014,0.23648 -0.37931,0.53574 -0.48696,0.66484 -0.10781,0.12916 -0.56676,0.81536 -1.02016,1.5249 -3.85405,6.46287 -0.70012,12.06294 0.19707,12.129 3.50615,1.08594 11.0028,0.77181 11.70643,-0.75369 z M 100.76378,82.995551 c 0.0382,-0.0492 0.68359,-3.20063 0.805,-3.76708 0.27462,-1.28035 1.31216,-5.36893 1.99546,-7.86347 0.57594,-2.10257 0.58855,-2.26774 0.17613,-2.30706 -0.88241,-0.0842 -1.6164,0.87044 -2.47723,3.22179 -0.59619,1.62852 -3.528711,10.06162 -3.428981,10.10961 1.34015,0.0334 1.86582,0.203 2.929621,0.60621 z m 4.24685,-1.69216 c 0.67546,-3.85609 2.1762,-11.55239 3.0105,-15.16776 0.20795,-0.9012 0.37104,-1.73704 0.36239,-1.85746 -0.0453,-0.63106 -0.72963,-0.54015 -1.56084,0.20731 -0.56732,0.51016 -1.04625,1.31968 -1.52354,2.57513 -0.22271,0.58583 -0.40893,1.15103 -0.41383,1.25603 -0.005,0.10494 -0.16471,0.70553 -0.35514,1.33455 -0.19049,0.62898 -0.37368,1.35047 -0.4072,1.60324 -0.0336,0.25274 -0.485,2.10615 -1.00328,4.11865 -0.51831,2.0125 -1.01271,3.96288 -1.09871,4.33419 l -0.75866,3.55507 c 0,0 0.44499,0.47716 0.57973,0.73471 0.31751,0.60692 0.31013,1.42261 0.0533,2.05416 -0.11212,0.27577 -0.78934,1.67699 0.7542,-0.12985 0,0 1.79457,-1.57377 2.36103,-4.61797 z"
       sodipodi:nodetypes="csccssssscccccssssccccccccssscsccccccccscscccsssscccsscssccc" />
    <path
       id="path19189"
       style="display:inline;fill:#999999;fill-opacity:1;stroke-width:0.26457"
       d="m 50.364047,115.11098 c -0.23315,-0.60876 -0.536087,-1.30619 -0.673167,-1.54963 -0.294883,-0.52377 -0.929343,-1.15988 -1.63466,-1.63895 -1.437787,-1.17519 -3.086007,-2.24891 -4.503631,-3.14551 -2.398858,-1.54569 -5.840198,-2.99873 -9.947562,-5.14773 -2.165616,-1.13306 -4.076073,-2.36581 -5.691943,-3.686249 -1.433673,-1.17156 -3.11939,-2.84611 -3.685507,-3.6202 -2.074737,-2.83688 -3.549043,-5.12781 -5.688994,-9.07446 -1.15619,-2.13231 -1.51658,-3.07142 -2.315917,-5.99912 -0.361387,-1.32367 -0.946554,-6.56489 -0.938684,-6.63298 0.008,-0.0681 10e-4,-0.14771 -0.0151,-0.17695 -0.0699,-0.12642 -0.541657,-6.63477 -0.653937,-9.02214 -0.0832,-1.768 -0.0814,-3.2218 0.004,-3.64739 0.0964,-0.47801 0.707117,-0.73417 1.462761,-0.61349 0.559667,0.0893 1.499037,0.60379 1.92872,1.05621 0.861364,0.90693 1.393801,2.88826 2.871391,10.68475 0.72203,3.80986 1.524793,7.92511 1.833293,9.39814 0.358623,1.71237 1.390057,2.89437 2.056494,3.69029 0.435847,0.52056 0.878787,0.92015 2.112097,1.97867 3.25237,2.24472 7.249403,4.64417 10.07247,6.78887 0.44274,0.33821 0.97235,0.72125 1.17691,0.8512 0.332427,0.2019 0.360647,0.21675 0.678137,0.39316 0.892017,0.27269 -2.946904,-2.74373 -2.852624,-2.67458 0.259487,0.17638 -8.2078,-4.98685 -9.053463,-6.72651 -0.67977,-1.34994 -0.49365,-2.59283 0.876783,-3.19669 2.955044,-0.95861 4.71812,-0.4661 6.71852,0.81125 0.689403,0.43577 1.36757,0.87681 1.785787,1.20971 0.96659,0.7694 3.133004,1.75513 4.119687,2.18564 0.960073,0.4189 3.671148,1.0273 4.404215,1.25752 0.645913,0.20285 3.714224,1.39196 5.301804,2.22451 1.296694,0.80511 4.053284,2.45613 5.954465,4.26408 0.513945,0.48874 1.181227,1.58189 1.707197,2.234 0.98687,1.34357 2.0997,2.657439 2.98681,3.959529 0.16014,0.23648 0.37932,0.53574 0.48697,0.66484 0.10781,0.12916 0.56675,0.81536 1.02015,1.5249 3.85405,6.46287 0.70013,12.06294 -0.19707,12.129 -3.50616,1.08594 -11.002778,0.77181 -11.706402,-0.75369 z M 27.294961,82.995551 c -0.0382,-0.0492 -0.68359,-3.20063 -0.805,-3.76708 -0.27462,-1.28035 -1.31216,-5.36893 -1.995454,-7.86347 -0.575937,-2.10257 -0.588547,-2.26774 -0.17613,-2.30706 0.882404,-0.0842 1.616394,0.87044 2.477224,3.22179 0.59619,1.62852 3.52871,10.06162 3.42898,10.10961 -1.340144,0.0334 -1.865817,0.203 -2.92962,0.60621 z m -4.246838,-1.69216 c -0.675463,-3.85609 -2.176206,-11.55239 -3.010509,-15.16776 -0.20795,-0.9012 -0.371037,-1.73704 -0.362387,-1.85746 0.0453,-0.63106 0.729627,-0.54015 1.56084,0.20731 0.56732,0.51016 1.046253,1.31968 1.523543,2.57513 0.222713,0.58583 0.408933,1.15103 0.413833,1.25603 0.005,0.10494 0.16471,0.70553 0.355137,1.33455 0.19049,0.62898 0.37368,1.35047 0.4072,1.60324 0.0336,0.25274 0.484997,2.10615 1.003274,4.11865 0.518307,2.0125 1.012707,3.96288 1.098707,4.33419 l 0.75866,3.55507 c 0,0 -0.44499,0.47716 -0.57973,0.73471 -0.31751,0.60692 -0.31013,1.42261 -0.0533,2.05416 0.11212,0.27577 0.78934,1.67699 -0.7542,-0.12985 0,0 -1.794561,-1.57377 -2.361018,-4.61797 z"
       sodipodi:nodetypes="csccssssscccccssssccccccccssscsccccccccscscccsssscccsscssccc" />
  </g>
  <g
     inkscape:groupmode="layer"
     id="layer6"
     inkscape:label="Letters"
     style="display:inline"
     sodipodi:insensitive="true">
    <circle
       style="display:inline;opacity:0.999;fill:#707372;fill-opacity:1;stroke-width:0.35269;stroke-linecap:round;stroke-linejoin:round"
       id="path9369-0-2"
       cx="70.098442"
       cy="53.042297"
       r="1.0756376" />
    <circle
       style="display:inline;opacity:0.999;fill:#707372;fill-opacity:1;stroke-width:0.35269;stroke-linecap:round;stroke-linejoin:round"
       id="path9369-0-7"
       cx="18.851578"
       cy="20.90065"
       r="1.0756376" />
    <circle
       style="display:inline;opacity:0.999;fill:#707372;fill-opacity:1;stroke-width:0.35269;stroke-linecap:round;stroke-linejoin:round"
       id="path9369-27"
       cx="94.144371"
       cy="45.747902"
       r="0.46787488" />
    <circle
       style="display:inline;opacity:0.999;fill:#707372;fill-opacity:1;stroke-width:0.35269;stroke-linecap:round;stroke-linejoin:round"
       id="path9369-0"
       cx="94.144371"
       cy="26.40992"
       r="1.0756376" />
    <circle
       style="display:inline;opacity:0.999;fill:#707372;fill-opacity:1;stroke-width:0.35269;stroke-linecap:round;stroke-linejoin:round"
       id="path9369-0-9"
       cx="111.94607"
       cy="45.747902"
       r="1.0756376" />
    <circle
       style="display:inline;opacity:0.999;fill:#707372;fill-opacity:1;stroke-width:0.35269;stroke-linecap:round;stroke-linejoin:round"
       id="path9369-60"
       cx="111.94607"
       cy="26.40992"
       r="0.46787488" />
    <circle
       style="display:inline;opacity:0.999;fill:#707372;fill-opacity:1;stroke-width:0.35269;stroke-linecap:round;stroke-linejoin:round"
       id="path9369-61"
       cx="55.850517"
       cy="62.502411"
       r="0.46787488" />
    <circle
       style="display:inline;opacity:0.999;fill:#707372;fill-opacity:1;stroke-width:0.35269;stroke-linecap:round;stroke-linejoin:round"
       id="path9369-8"
       cx="70.085579"
       cy="74.442825"
       r="0.46787488" />
    <circle
       style="display:inline;opacity:0.999;fill:#707372;fill-opacity:1;stroke-width:0.35269;stroke-linecap:round;stroke-linejoin:round"
       id="path9369-0-0"
       cx="55.845444"
       cy="82.884308"
       r="1.0756376" />
    <circle
       style="display:inline;opacity:0.999;fill:#707372;fill-opacity:1;stroke-width:0.35269;stroke-linecap:round;stroke-linejoin:round"
       id="path9369-6"
       cx="30.726845"
       cy="27.906555"
       r="0.46787488" />
    <circle
       style="display:inline;opacity:0.999;fill:#707372;fill-opacity:1;stroke-width:0.35269;stroke-linecap:round;stroke-linejoin:round"
       id="path9369-2"
       cx="18.841991"
       cy="36.278755"
       r="0.46787488" />
    <circle
       style="display:inline;opacity:0.999;fill:#707372;fill-opacity:1;stroke-width:0.35269;stroke-linecap:round;stroke-linejoin:round"
       id="path9369-0-23"
       cx="30.727539"
       cy="47.76944"
       r="1.0756376" />
    <circle
       style="display:inline;opacity:0.999;fill:#707372;fill-opacity:1;stroke-width:0.35269;stroke-linecap:round;stroke-linejoin:round"
       id="path9369-1"
       cx="18.841991"
       cy="51.802017"
       r="0.46787488" />
    <path
       style="display:inline;fill:#707372;fill-rule:evenodd;stroke:#707372;stroke-width:0.264583px;stroke-linecap:butt;stroke-linejoin:miter;stroke-opacity:1"
       d="M 19.224489,36.009307 30.344347,28.176003"
       id="path10566"
       inkscape:connector-type="polyline"
       inkscape:connector-curvature="0"
       inkscape:connection-start="#path9369-2"
       inkscape:connection-end="#path9369-6" />
    <path
       style="display:inline;fill:#707372;fill-rule:evenodd;stroke:#707372;stroke-width:0.264583px;stroke-linecap:butt;stroke-linejoin:miter;stroke-opacity:1"
       d="m 18.850907,21.976283 -0.0086,13.834599"
       id="path10568"
       inkscape:connector-type="polyline"
       inkscape:connector-curvature="0"
       inkscape:connection-start="#path9369-0-7"
       inkscape:connection-end="#path9369-2" />
    <path
       style="display:inline;fill:#707372;fill-rule:evenodd;stroke:#707372;stroke-width:0.264583px;stroke-linecap:butt;stroke-linejoin:miter;stroke-opacity:1"
       d="M 18.841991,51.334142 V 36.74663"
       id="path10570"
       inkscape:connector-type="polyline"
       inkscape:connector-curvature="0"
       inkscape:connection-start="#path9369-1"
       inkscape:connection-end="#path9369-2" />
    <path
       style="display:inline;fill:#707372;fill-rule:evenodd;stroke:#707372;stroke-width:0.264583px;stroke-linecap:butt;stroke-linejoin:miter;stroke-opacity:1"
       d="M 29.954225,47.021817 19.178363,36.603952"
       id="path10572"
       inkscape:connector-type="polyline"
       inkscape:connector-curvature="0"
       inkscape:connection-start="#path9369-0-23"
       inkscape:connection-end="#path9369-2" />
    <path
       style="display:inline;fill:#707372;fill-rule:evenodd;stroke:#707372;stroke-width:0.264583px;stroke-linecap:butt;stroke-linejoin:miter;stroke-opacity:1"
       d="m 19.777991,21.447195 10.545888,6.221627"
       id="path10756"
       inkscape:connector-type="polyline"
       inkscape:connector-curvature="0"
       inkscape:connection-start="#path9369-0-7"
       inkscape:connection-end="#path9369-6" />
    <path
       style="display:inline;fill:none;fill-rule:evenodd;stroke:#707372;stroke-width:0.264583px;stroke-linecap:butt;stroke-linejoin:miter;stroke-opacity:1"
       d="M 69.202354,53.637268 56.240293,62.243614"
       id="path11040"
       inkscape:connector-type="polyline"
       inkscape:connector-curvature="0"
       inkscape:connection-start="#path9369-0-2"
       inkscape:connection-end="#path9369-61" />
    <path
       style="display:inline;fill:none;fill-rule:evenodd;stroke:#707372;stroke-width:0.264583px;stroke-linecap:butt;stroke-linejoin:miter;stroke-opacity:1"
       d="M 56.20898,62.80309 69.727117,74.142146"
       id="path11064"
       inkscape:connector-type="polyline"
       inkscape:connector-curvature="0"
       inkscape:connection-start="#path9369-61"
       inkscape:connection-end="#path9369-8" />
    <path
       style="display:inline;fill:none;fill-rule:evenodd;stroke:#707372;stroke-width:0.264583px;stroke-linecap:butt;stroke-linejoin:miter;stroke-opacity:1"
       d="M 69.683113,74.681405 56.770707,82.335816"
       id="path11088"
       inkscape:connector-type="polyline"
       inkscape:connector-curvature="0"
       inkscape:connection-start="#path9369-8"
       inkscape:connection-end="#path9369-0-0" />
    <path
       style="display:inline;fill:none;fill-rule:evenodd;stroke:#707372;stroke-width:0.264583px;stroke-linecap:butt;stroke-linejoin:miter;stroke-opacity:1"
       d="M 94.144371,45.280027 V 27.485557"
       id="path11112"
       inkscape:connector-type="polyline"
       inkscape:connector-curvature="0"
       inkscape:connection-start="#path9369-27"
       inkscape:connection-end="#path9369-0" />
    <path
       style="display:inline;fill:none;fill-rule:evenodd;stroke:#707372;stroke-width:0.264583px;stroke-linecap:butt;stroke-linejoin:miter;stroke-opacity:1"
       d="M 94.872864,27.201282 111.21757,44.95654"
       id="path11136"
       inkscape:connector-type="polyline"
       inkscape:connector-curvature="0"
       inkscape:connection-start="#path9369-0"
       inkscape:connection-end="#path9369-0-9" />
    <path
       style="display:inline;fill:none;fill-rule:evenodd;stroke:#707372;stroke-width:0.264583px;stroke-linecap:butt;stroke-linejoin:miter;stroke-opacity:1"
       d="M 111.94607,44.672264 V 26.877795"
       id="path11160"
       inkscape:connector-type="polyline"
       inkscape:connector-curvature="0"
       inkscape:connection-start="#path9369-0-9"
       inkscape:connection-end="#path9369-60" />
    <path
       style="display:inline;fill:none;fill-rule:evenodd;stroke:#a8a99e;stroke-width:0.265;stroke-linecap:butt;stroke-linejoin:miter;stroke-miterlimit:4;stroke-dasharray:0.265, 0.53;stroke-dashoffset:0;stroke-opacity:1"
       d="M 31.353321,48.644283 55.219662,82.009464"
       id="path11286"
       inkscape:connector-type="polyline"
       inkscape:connector-curvature="0"
       inkscape:connection-start="#path9369-0-23"
       inkscape:connection-end="#path9369-0-0" />
    <path
       style="display:inline;fill:none;fill-rule:evenodd;stroke:#a8a99e;stroke-width:0.264583;stroke-linecap:butt;stroke-linejoin:miter;stroke-miterlimit:4;stroke-dasharray:0.264583, 0.529166;stroke-dashoffset:0;stroke-opacity:1"
       d="m 93.696643,45.883721 -22.568882,6.84633"
       id="path11354"
       inkscape:connector-type="polyline"
       inkscape:connector-curvature="0"
       inkscape:connection-start="#path9369-27"
       inkscape:connection-end="#path9369-0-2" />
  </g>
</svg>
